<svg xmlns="http://www.w3.org/2000/svg" xmlns:xlink="http://www.w3.org/1999/xlink" xmlns:inkscape="http://www.inkscape.org/namespaces/inkscape" version="1.1" width="418.026" height="112.402" viewBox="0 0 418.026 112.402">
<path transform="matrix(1,0,0,-1,11.538,56.201)" d="M11.33871 0C11.33871 6.26227 6.26227 11.33871 0 11.33871-6.26227 11.33871-11.33871 6.26227-11.33871 0-11.33871-6.26227-6.26227-11.33871 0-11.33871 6.26227-11.33871 11.33871-6.26227 11.33871 0ZM0 0" fill="#ccccff"/>
<path transform="matrix(1,0,0,-1,11.538,56.201)" stroke-width=".3985" stroke-linecap="butt" stroke-miterlimit="10" stroke-linejoin="miter" fill="none" stroke="#ffffff" d="M11.33871 0C11.33871 6.26227 6.26227 11.33871 0 11.33871-6.26227 11.33871-11.33871 6.26227-11.33871 0-11.33871-6.26227-6.26227-11.33871 0-11.33871 6.26227-11.33871 11.33871-6.26227 11.33871 0ZM0 0"/>
<text xml:space="preserve" transform="matrix(1 0 -0 1 0 112.402)" font-size="9.9626" font-family="CMR10"><tspan y="-52.797" x="7.802">A</tspan></text>
<path transform="matrix(1,0,0,-1,11.538,56.201)" d="M91.10828 0C91.10828 6.26227 86.03183 11.33871 79.76956 11.33871 73.5073 11.33871 68.43085 6.26227 68.43085 0 68.43085-6.26227 73.5073-11.33871 79.76956-11.33871 86.03183-11.33871 91.10828-6.26227 91.10828 0ZM79.76956 0" fill="#ccccff"/>
<path transform="matrix(1,0,0,-1,11.538,56.201)" stroke-width=".3985" stroke-linecap="butt" stroke-miterlimit="10" stroke-linejoin="miter" fill="none" stroke="#ffffff" d="M91.10828 0C91.10828 6.26227 86.03183 11.33871 79.76956 11.33871 73.5073 11.33871 68.43085 6.26227 68.43085 0 68.43085-6.26227 73.5073-11.33871 79.76956-11.33871 86.03183-11.33871 91.10828-6.26227 91.10828 0ZM79.76956 0"/>
<text xml:space="preserve" transform="matrix(1 0 -0 1 0 112.402)" font-size="9.9626" font-family="CMR10"><tspan y="-52.797" x="87.778">B</tspan></text>
<path transform="matrix(1,0,0,-1,11.538,56.201)" d="M170.87784 0C170.87784 6.26227 165.8014 11.33871 159.53913 11.33871 153.27686 11.33871 148.20041 6.26227 148.20041 0 148.20041-6.26227 153.27686-11.33871 159.53913-11.33871 165.8014-11.33871 170.87784-6.26227 170.87784 0ZM159.53913 0" fill="#ccccff"/>
<path transform="matrix(1,0,0,-1,11.538,56.201)" stroke-width=".3985" stroke-linecap="butt" stroke-miterlimit="10" stroke-linejoin="miter" fill="none" stroke="#ffffff" d="M170.87784 0C170.87784 6.26227 165.8014 11.33871 159.53913 11.33871 153.27686 11.33871 148.20041 6.26227 148.20041 0 148.20041-6.26227 153.27686-11.33871 159.53913-11.33871 165.8014-11.33871 170.87784-6.26227 170.87784 0ZM159.53913 0"/>
<text xml:space="preserve" transform="matrix(1 0 -0 1 -.000015258789 112.402)" font-size="9.9626" font-family="CMR10"><tspan y="-52.797" x="167.477">C</tspan></text>
<path transform="matrix(1,0,0,-1,11.538,56.201)" d="M250.64742 0C250.64742 6.26227 245.57097 11.33871 239.3087 11.33871 233.04644 11.33871 227.96999 6.26227 227.96999 0 227.96999-6.26227 233.04644-11.33871 239.3087-11.33871 245.57097-11.33871 250.64742-6.26227 250.64742 0ZM239.3087 0" fill="#ccccff"/>
<path transform="matrix(1,0,0,-1,11.538,56.201)" stroke-width=".3985" stroke-linecap="butt" stroke-miterlimit="10" stroke-linejoin="miter" fill="none" stroke="#ffffff" d="M250.64742 0C250.64742 6.26227 245.57097 11.33871 239.3087 11.33871 233.04644 11.33871 227.96999 6.26227 227.96999 0 227.96999-6.26227 233.04644-11.33871 239.3087-11.33871 245.57097-11.33871 250.64742-6.26227 250.64742 0ZM239.3087 0"/>
<text xml:space="preserve" transform="matrix(1 0 -0 1 0 112.402)" font-size="9.9626" font-family="CMR10"><tspan y="-52.797" x="247.038">D</tspan></text>
<path transform="matrix(1,0,0,-1,11.538,56.201)" stroke-width=".3985" stroke-linecap="butt" stroke-miterlimit="10" stroke-linejoin="miter" fill="none" stroke="#ffffff" d="M11.53796 0H67.77332"/>
<path transform="matrix(1,0,0,-1,79.311328,56.201)" stroke-width=".31879" stroke-linecap="round" stroke-linejoin="round" fill="none" stroke="#ffffff" d="M-1.19551 1.59401C-1.09587 .99626 0 .09961 .29886 0 0-.09961-1.09587-.99626-1.19551-1.59401"/>
<path transform="matrix(1,0,0,-1,11.538,56.201)" stroke-width=".3985" stroke-linecap="butt" stroke-miterlimit="10" stroke-linejoin="miter" fill="none" stroke="#ffffff" d="M91.30753 0H147.54288"/>
<path transform="matrix(1,0,0,-1,159.08087,56.201)" stroke-width=".31879" stroke-linecap="round" stroke-linejoin="round" fill="none" stroke="#ffffff" d="M-1.19551 1.59401C-1.09587 .99626 0 .09961 .29886 0 0-.09961-1.09587-.99626-1.19551-1.59401"/>
<path transform="matrix(1,0,0,-1,11.538,56.201)" stroke-width=".3985" stroke-linecap="butt" stroke-miterlimit="10" stroke-linejoin="miter" fill="none" stroke="#ffffff" d="M171.0771 0H227.31246"/>
<path transform="matrix(1,0,0,-1,238.85045,56.201)" stroke-width=".31879" stroke-linecap="round" stroke-linejoin="round" fill="none" stroke="#ffffff" d="M-1.19551 1.59401C-1.09587 .99626 0 .09961 .29886 0 0-.09961-1.09587-.99626-1.19551-1.59401"/>
<path transform="matrix(1,0,0,-1,11.538,56.201)" d="M295.3114 44.66397C295.3114 50.92624 290.23497 56.00269 283.97267 56.00269 277.7104 56.00269 272.63398 50.92624 272.63398 44.66397 272.63398 38.40169 277.7104 33.32526 283.97267 33.32526 290.23497 33.32526 295.3114 38.40169 295.3114 44.66397ZM283.97267 44.66397" fill="#ffcccc"/>
<path transform="matrix(1,0,0,-1,11.538,56.201)" stroke-width=".3985" stroke-linecap="butt" stroke-miterlimit="10" stroke-linejoin="miter" fill="none" stroke="#ffffff" d="M295.3114 44.66397C295.3114 50.92624 290.23497 56.00269 283.97267 56.00269 277.7104 56.00269 272.63398 50.92624 272.63398 44.66397 272.63398 38.40169 277.7104 33.32526 283.97267 33.32526 290.23497 33.32526 295.3114 38.40169 295.3114 44.66397ZM283.97267 44.66397"/>
<text xml:space="preserve" transform="matrix(1 0 -0 1 0 112.402)" font-size="9.9626" font-family="CMR10"><tspan y="-97.461" x="292.117">E</tspan></text>
<path transform="matrix(1,0,0,-1,11.538,56.201)" d="M295.3114-44.66397C295.3114-38.40169 290.23497-33.32526 283.97267-33.32526 277.7104-33.32526 272.63398-38.40169 272.63398-44.66397 272.63398-50.92624 277.7104-56.00269 283.97267-56.00269 290.23497-56.00269 295.3114-50.92624 295.3114-44.66397ZM283.97267-44.66397" fill="#ffcccc"/>
<path transform="matrix(1,0,0,-1,11.538,56.201)" stroke-width=".3985" stroke-linecap="butt" stroke-miterlimit="10" stroke-linejoin="miter" fill="none" stroke="#ffffff" d="M295.3114-44.66397C295.3114-38.40169 290.23497-33.32526 283.97267-33.32526 277.7104-33.32526 272.63398-38.40169 272.63398-44.66397 272.63398-50.92624 277.7104-56.00269 283.97267-56.00269 290.23497-56.00269 295.3114-50.92624 295.3114-44.66397ZM283.97267-44.66397"/>
<text xml:space="preserve" transform="matrix(1 0 -0 1 0 112.40201)" font-size="9.9626" font-family="CMR10"><tspan y="-8.134" x="292.255">F</tspan></text>
<path transform="matrix(1,0,0,-1,11.538,56.201)" d="M352.00505 44.66397C352.00505 50.92624 346.9286 56.00269 340.66633 56.00269 334.40406 56.00269 329.3276 50.92624 329.3276 44.66397 329.3276 38.40169 334.40406 33.32526 340.66633 33.32526 346.9286 33.32526 352.00505 38.40169 352.00505 44.66397ZM340.66633 44.66397" fill="#ffcccc"/>
<path transform="matrix(1,0,0,-1,11.538,56.201)" stroke-width=".3985" stroke-linecap="butt" stroke-miterlimit="10" stroke-linejoin="miter" fill="none" stroke="#ffffff" d="M352.00505 44.66397C352.00505 50.92624 346.9286 56.00269 340.66633 56.00269 334.40406 56.00269 329.3276 50.92624 329.3276 44.66397 329.3276 38.40169 334.40406 33.32526 340.66633 33.32526 346.9286 33.32526 352.00505 38.40169 352.00505 44.66397ZM340.66633 44.66397"/>
<text xml:space="preserve" transform="matrix(1 0 -0 1 0 112.402)" font-size="9.9626" font-family="CMR10"><tspan y="-97.461" x="348.291">G</tspan></text>
<path transform="matrix(1,0,0,-1,11.538,56.201)" d="M352.00505-44.66397C352.00505-38.40169 346.9286-33.32526 340.66633-33.32526 334.40406-33.32526 329.3276-38.40169 329.3276-44.66397 329.3276-50.92624 334.40406-56.00269 340.66633-56.00269 346.9286-56.00269 352.00505-50.92624 352.00505-44.66397ZM340.66633-44.66397" fill="#ffcccc"/>
<path transform="matrix(1,0,0,-1,11.538,56.201)" stroke-width=".3985" stroke-linecap="butt" stroke-miterlimit="10" stroke-linejoin="miter" fill="none" stroke="#ffffff" d="M352.00505-44.66397C352.00505-38.40169 346.9286-33.32526 340.66633-33.32526 334.40406-33.32526 329.3276-38.40169 329.3276-44.66397 329.3276-50.92624 334.40406-56.00269 340.66633-56.00269 346.9286-56.00269 352.00505-50.92624 352.00505-44.66397ZM340.66633-44.66397"/>
<text xml:space="preserve" transform="matrix(1 0 -0 1 0 112.40201)" font-size="9.9626" font-family="CMR10"><tspan y="-8.134" x="348.464">H</tspan></text>
<path transform="matrix(1,0,0,-1,11.538,56.201)" stroke-width=".3985" stroke-linecap="butt" stroke-miterlimit="10" stroke-linejoin="miter" fill="none" stroke="#ffffff" d="M247.46729 8.15857 275.49006 36.18134"/>
<path transform="matrix(.7071,-.7071,-.7071,-.7071,287.02806,20.01966)" stroke-width=".31879" stroke-linecap="round" stroke-linejoin="round" fill="none" stroke="#ffffff" d="M-1.19551 1.59401C-1.09587 .99626 0 .09961 .29886 0 0-.09961-1.09587-.99626-1.19551-1.59401"/>
<path transform="matrix(1,0,0,-1,11.538,56.201)" stroke-width=".3985" stroke-linecap="butt" stroke-miterlimit="10" stroke-linejoin="miter" fill="none" stroke="#ffffff" d="M247.46729-8.15857 275.49006-36.18134"/>
<path transform="matrix(.7071,.7071,.7071,-.7071,287.02806,92.38234)" stroke-width=".31879" stroke-linecap="round" stroke-linejoin="round" fill="none" stroke="#ffffff" d="M-1.19551 1.59401C-1.09587 .99626 0 .09961 .29886 0 0-.09961-1.09587-.99626-1.19551-1.59401"/>
<path transform="matrix(1,0,0,-1,11.538,56.201)" stroke-width=".3985" stroke-linecap="butt" stroke-miterlimit="10" stroke-linejoin="miter" fill="none" stroke="#ffffff" d="M249.86638 4.65225 329.68934 39.82692"/>
<path transform="matrix(.91504,-.40321,-.40321,-.91504,341.2273,16.37408)" stroke-width=".31879" stroke-linecap="round" stroke-linejoin="round" fill="none" stroke="#ffffff" d="M-1.19551 1.59401C-1.09587 .99626 0 .09961 .29886 0 0-.09961-1.09587-.99626-1.19551-1.59401"/>
<path transform="matrix(1,0,0,-1,11.538,56.201)" stroke-width=".3985" stroke-linecap="butt" stroke-miterlimit="10" stroke-linejoin="miter" fill="none" stroke="#ffffff" d="M249.86638-4.65225 329.68934-39.82692"/>
<path transform="matrix(.91504,.40321,.40321,-.91504,341.2273,96.02792)" stroke-width=".31879" stroke-linecap="round" stroke-linejoin="round" fill="none" stroke="#ffffff" d="M-1.19551 1.59401C-1.09587 .99626 0 .09961 .29886 0 0-.09961-1.09587-.99626-1.19551-1.59401"/>
<text fill="#ffffff" xml:space="preserve" transform="matrix(1 0 -0 1 0 112.402)" font-size="9.9626" font-family="CMR10"><tspan y="-85.432" x="65.749 71.28821 75.16366 79.58705 91.20344 97.98797 103.527179 108.50848 112.43374">StemPhase</tspan></text>
<text fill="#ffffff" xml:space="preserve" transform="matrix(1 0 -0 1 -.000030517579 112.402)" font-size="9.9626" font-family="CMR10"><tspan y="-52.742" x="365.114 371.6196 374.3892 379.9284 382.8325 389.05415 395.83869 401.3779 406.3592 410.28446">FluffPhase</tspan></text>
<path transform="matrix(1,0,0,-1,11.538,56.201)" stroke-width=".79701" stroke-linecap="butt" stroke-dasharray="2.98883,2.98883" stroke-miterlimit="10" stroke-linejoin="miter" fill="none" stroke="#ff0000" d="M250.84667 0H313.20957"/>
</svg>
