<svg xmlns="http://www.w3.org/2000/svg" xmlns:xlink="http://www.w3.org/1999/xlink" xmlns:inkscape="http://www.inkscape.org/namespaces/inkscape" version="1.1" width="345.358" height="235.085" viewBox="0 0 345.358 235.085">
<path transform="matrix(1,0,0,-1,82.805,79.567)" stroke-width=".3985" stroke-linecap="butt" stroke-miterlimit="10" stroke-linejoin="miter" fill="none" stroke="#ffffff" d="M-36.75122-6.77985H36.75122V6.7798597H-36.75122Z"/>
<text fill="#ffffff" xml:space="preserve" transform="matrix(1 0 -0 1 0 235.08499)" font-size="9.9626" font-family="CMR10"><tspan y="-152.058" x="49.375 56.567998 60.473337 64.89673 69.87803 73.75348 81.494419 88.96637 94.50558 100.044788 103.95013 108.37352 112.29878">CreateAddress</tspan></text>
<path transform="matrix(1,0,0,-1,82.805,79.567)" d="M-34.95241 63.87198H34.95242V79.3689H-34.95241Z" fill="#ccffcc"/>
<path transform="matrix(1,0,0,-1,82.805,79.567)" stroke-width=".3985" stroke-linecap="butt" stroke-miterlimit="10" stroke-linejoin="miter" fill="none" stroke="#ffffff" d="M-34.95241 63.87198H34.95242V79.3689H-34.95241Z"/>
<text fill="#ffffff" xml:space="preserve" transform="matrix(1 0 -0 1 0 235.085)" font-size="9.9626" font-family="CMR10"><tspan y="-224.647" x="51.174 56.713209 62.252416 67.23371 71.13905 79.71685 87.1888 92.728008 98.26721 102.172557 106.59595 110.52121">SparkAddress</tspan></text>
<path transform="matrix(1,0,0,-1,82.805,79.567)" stroke-width=".3985" stroke-linecap="butt" stroke-miterlimit="10" stroke-linejoin="miter" fill="none" stroke="#ffffff" d="M-41.8295-92.23744H41.8295V-63.871995H-41.8295Z"/>
<text fill="#ffffff" xml:space="preserve" transform="matrix(1 0 -0 1 0 235.08499)" font-size="9.9626" font-family="CMR10"><tspan y="-81.407" x="44.297 51.90843 54.678033 59.659334 64.082729 67.98807 71.91333 74.68293 77.45253 80.22214 84.64553 93.50228 100.28681 105.82602 111.36523 114.13483 116.90443">DiversifiedPublic</tspan><tspan y="-69.451999" x="45.335 52.80695 58.346158 63.885366 67.7907 72.214099 76.13936 83.382167">Address(</tspan></text>
<text fill="#ffffff" xml:space="preserve" transform="matrix(1 0 -0 1 0 235.08499)" font-size="9.9626" font-family="CMMI10" font-style="italic"><tspan y="-69.451999" x="87.261 92.53122 97.72173 102.91225">addr</tspan></text>
<text fill="#ffffff" xml:space="preserve" transform="matrix(1 0 -0 1 0 235.08499)" font-size="6.9738" font-family="CMMI7" font-style="italic"><tspan y="-67.95799" x="107.393009 111.50057">pk</tspan></text>
<text fill="#ffffff" xml:space="preserve" transform="matrix(1 0 -0 1 0 235.08499)" font-size="9.9626" font-family="CMR10"><tspan y="-69.451999" x="116.40101">)</tspan></text>
<path transform="matrix(1,0,0,-1,82.805,79.567)" stroke-width=".3985" stroke-linecap="butt" stroke-miterlimit="10" stroke-linejoin="miter" fill="none" stroke="#ffffff" d="M98.92163-84.77922H158.17179V-71.33022H98.92163Z"/>
<text fill="#ffffff" xml:space="preserve" transform="matrix(1 0 -0 1 -.000015258789 235.08499)" font-size="9.9626" font-family="CMR10"><tspan y="-74.06" x="185.046 192.239 196.14434 200.56774 205.54903 209.42449 217.16544 224.35843 229.33972 232.10933">CreateCoin</tspan></text>
<path transform="matrix(1,0,0,-1,82.805,79.567)" d="M114.98662-14.23807H142.10681V-.7890692H114.98662Z" fill="#ffcccc"/>
<path transform="matrix(1,0,0,-1,82.805,79.567)" stroke-width=".3985" stroke-linecap="butt" stroke-miterlimit="10" stroke-linejoin="miter" fill="none" stroke="#ffffff" d="M114.98662-14.23807H142.10681V-.7890692H114.98662Z"/>
<text fill="#ffffff" xml:space="preserve" transform="matrix(1 0 -0 1 0 235.085)" font-size="9.9626" font-family="CMR10"><tspan y="-144.6" x="201.111 208.30399 213.28528 216.05489">Coin</tspan></text>
<path transform="matrix(1,0,0,-1,82.805,79.567)" stroke-width=".3985" stroke-linecap="butt" stroke-miterlimit="10" stroke-linejoin="miter" fill="none" stroke="#ffffff" d="M114.70988-155.32038H142.38356V-141.87137H114.70988Z"/>
<text fill="#ffffff" xml:space="preserve" transform="matrix(1 0 -0 1 0 235.085)" font-size="9.9626" font-family="CMR10"><tspan y="-3.52" x="200.834 209.96971 212.73932 217.99958">Mint</tspan></text>
<path transform="matrix(1,0,0,-1,82.805,79.567)" stroke-width=".3985" stroke-linecap="butt" stroke-miterlimit="10" stroke-linejoin="miter" fill="none" stroke="#ffffff" d="M165.03839-15.26204H205.44232V.2348795H165.03839Z"/>
<text fill="#ffffff" xml:space="preserve" transform="matrix(1 0 -0 1 -.000015258789 235.085)" font-size="9.9626" font-family="CMR10"><tspan y="-145.514" x="251.162 254.7585 260.2977 264.7211 269.98136 273.8568 276.6264 279.67497">Identify</tspan></text>
<path transform="matrix(1,0,0,-1,82.805,79.567)" stroke-width=".3985" stroke-linecap="butt" stroke-miterlimit="10" stroke-linejoin="miter" fill="none" stroke="#ffffff" d="M221.51067-14.23807H262.3573V-.7890692H221.51067Z"/>
<text fill="#ffffff" xml:space="preserve" transform="matrix(1 0 -0 1 0 235.085)" font-size="9.9626" font-family="CMR10"><tspan y="-144.6" x="307.634 314.9665 319.3899 323.8133 328.51564 333.49693 337.93028">Recover</tspan></text>
<path transform="matrix(1,0,0,-1,82.805,79.567)" stroke-width=".3985" stroke-linecap="butt" stroke-miterlimit="10" stroke-linejoin="miter" fill="none" stroke="#ffffff" d="M225.19132-86.12907H258.67668V-70.63215H225.19132Z"/>
<text fill="#ffffff" xml:space="preserve" transform="matrix(1 0 -0 1 0 235.085)" font-size="9.9626" font-family="CMR10"><tspan y="-74.647" x="311.314 316.8532 322.6714 327.0948 332.634">Spend</tspan></text>
<path transform="matrix(1,0,0,-1,82.805,79.567)" stroke-width=".3985" stroke-linecap="butt" stroke-miterlimit="10" stroke-linejoin="miter" fill="none" stroke="#ffffff" d="M0 63.67273V7.43738"/>
<path transform="matrix(0,1,1,0,82.805,72.12962)" stroke-width=".31879" stroke-linecap="round" stroke-linejoin="round" fill="none" stroke="#ffffff" d="M-1.19551 1.59401C-1.09587 .99626 0 .09961 .29886 0 0-.09961-1.09587-.99626-1.19551-1.59401"/>
<path transform="matrix(1,0,0,-1,82.805,79.567)" stroke-width=".3985" stroke-linecap="butt" stroke-miterlimit="10" stroke-linejoin="miter" fill="none" stroke="#ffffff" d="M0-6.9791V-63.21446"/>
<path transform="matrix(0,1,1,0,82.805,142.78147)" stroke-width=".31879" stroke-linecap="round" stroke-linejoin="round" fill="none" stroke="#ffffff" d="M-1.19551 1.59401C-1.09587 .99626 0 .09961 .29886 0 0-.09961-1.09587-.99626-1.19551-1.59401"/>
<path transform="matrix(1,0,0,-1,82.805,79.567)" stroke-width=".3985" stroke-linecap="butt" stroke-miterlimit="10" stroke-linejoin="miter" fill="none" stroke="#ffffff" d="M-82.60707-42.85297H-.19924927V-27.798851H-82.60707Z"/>
<text fill="#ffffff" xml:space="preserve" transform="matrix(1 0 -0 1 -.00000333786 235.08499)" font-size="9.9626" font-family="CMMI10" font-style="italic"><tspan y="-117.48" x="3.52 8.7902159 13.98073 19.171246">addr</tspan></text>
<text fill="#ffffff" xml:space="preserve" transform="matrix(1 0 -0 1 -.00000333786 235.08499)" font-size="6.9738" font-family="CMMI7" font-style="italic"><tspan y="-115.986" x="23.651001 26.468417">in</tspan></text>
<text fill="#ffffff" xml:space="preserve" transform="matrix(1 0 -0 1 -.00000333786 235.08499)" font-size="9.9626" font-family="CMR10"><tspan y="-117.48" x="35.214 40.1953 45.73451">and</tspan></text>
<text fill="#ffffff" xml:space="preserve" transform="matrix(1 0 -0 1 -.00000333786 235.08499)" font-size="9.9626" font-family="CMMI10" font-style="italic"><tspan y="-117.48" x="54.586">i</tspan></text>
<text fill="#ffffff" xml:space="preserve" transform="matrix(1 0 -0 1 -.00000333786 235.08499)" font-size="9.9626" font-family="CMSY10" font-style="italic"><tspan y="-117.48" x="60.785">&#x2208;</tspan></text>
<text fill="#ffffff" xml:space="preserve" transform="matrix(1 0 -0 1 -.00000333786 235.08499)" font-size="9.9626" font-family="CMMI10" font-style="italic"><tspan y="-117.48" x="70.195">N</tspan></text>
<path transform="matrix(1,0,0,-1,82.805,79.567)" stroke-width=".3985" stroke-linecap="butt" stroke-miterlimit="10" stroke-linejoin="miter" fill="none" stroke="#ffffff" d="M98.2641-78.05472H42.02875"/>
<path transform="matrix(1,0,0,-1,181.06909,157.62172)" stroke-width=".31879" stroke-linecap="round" stroke-linejoin="round" fill="none" stroke="#ffffff" d="M-1.19551 1.59401C-1.09587 .99626 0 .09961 .29886 0 0-.09961-1.09587-.99626-1.19551-1.59401"/>
<path transform="matrix(1,0,0,-1,82.805,79.567)" stroke-width=".3985" stroke-linecap="butt" stroke-miterlimit="10" stroke-linejoin="miter" fill="none" stroke="#ffffff" d="M128.54673-141.6721V-85.43675"/>
<path transform="matrix(0,-1,-1,-0,211.35172,165.00376)" stroke-width=".31879" stroke-linecap="round" stroke-linejoin="round" fill="none" stroke="#ffffff" d="M-1.19551 1.59401C-1.09587 .99626 0 .09961 .29886 0 0-.09961-1.09587-.99626-1.19551-1.59401"/>
<path transform="matrix(1,0,0,-1,82.805,79.567)" stroke-width=".3985" stroke-linecap="butt" stroke-miterlimit="10" stroke-linejoin="miter" fill="none" stroke="#ffffff" d="M75.8775-120.0498H128.34746V-106.6008H75.8775Z"/>
<text fill="#ffffff" xml:space="preserve" transform="matrix(1 0 -0 1 0 235.08499)" font-size="9.9626" font-family="CMR10"><tspan y="-38.79" x="162.002 169.05553 174.59473 178.50006 187.35681 194.5498 199.5311 202.3007">BurnCoin</tspan></text>
<path transform="matrix(1,0,0,-1,82.805,79.567)" stroke-width=".3985" stroke-linecap="butt" stroke-miterlimit="10" stroke-linejoin="miter" fill="none" stroke="#ffffff" d="M224.99207-78.33203 158.82932-78.14157"/>
<path transform="matrix(-.99997,-.00287,-.00287,.99997,241.63431,157.70859)" stroke-width=".31879" stroke-linecap="round" stroke-linejoin="round" fill="none" stroke="#ffffff" d="M-1.19551 1.59401C-1.09587 .99626 0 .09961 .29886 0 0-.09961-1.09587-.99626-1.19551-1.59401"/>
<path transform="matrix(1,0,0,-1,82.805,79.567)" stroke-width=".3985" stroke-linecap="butt" stroke-miterlimit="10" stroke-linejoin="miter" fill="none" stroke="#ffffff" d="M128.54673-71.13097V-14.8956"/>
<path transform="matrix(0,-1,-1,-0,211.35172,94.4626)" stroke-width=".31879" stroke-linecap="round" stroke-linejoin="round" fill="none" stroke="#ffffff" d="M-1.19551 1.59401C-1.09587 .99626 0 .09961 .29886 0 0-.09961-1.09587-.99626-1.19551-1.59401"/>
<path transform="matrix(1,0,0,-1,82.805,79.567)" stroke-width=".3985" stroke-linecap="butt" stroke-miterlimit="10" stroke-linejoin="miter" fill="none" stroke="#ffffff" d="M142.30608-7.51357H164.38086"/>
<path transform="matrix(1,0,0,-1,247.18585,87.080577)" stroke-width=".31879" stroke-linecap="round" stroke-linejoin="round" fill="none" stroke="#ffffff" d="M-1.19551 1.59401C-1.09587 .99626 0 .09961 .29886 0 0-.09961-1.09587-.99626-1.19551-1.59401"/>
<path transform="matrix(1,0,0,-1,82.805,79.567)" stroke-width=".3985" stroke-linecap="butt" stroke-miterlimit="10" stroke-linejoin="miter" fill="none" stroke="#ffffff" d="M205.64157-7.51357H220.85314"/>
<path transform="matrix(1,0,0,-1,303.65815,87.080577)" stroke-width=".31879" stroke-linecap="round" stroke-linejoin="round" fill="none" stroke="#ffffff" d="M-1.19551 1.59401C-1.09587 .99626 0 .09961 .29886 0 0-.09961-1.09587-.99626-1.19551-1.59401"/>
<path transform="matrix(1,0,0,-1,82.805,79.567)" stroke-width=".3985" stroke-linecap="butt" stroke-miterlimit="10" stroke-linejoin="miter" fill="none" stroke="#ffffff" d="M241.93399-14.43733V-69.97462"/>
<path transform="matrix(0,1,1,0,324.73899,149.54163)" stroke-width=".31879" stroke-linecap="round" stroke-linejoin="round" fill="none" stroke="#ffffff" d="M-1.19551 1.59401C-1.09587 .99626 0 .09961 .29886 0 0-.09961-1.09587-.99626-1.19551-1.59401"/>
<path transform="matrix(1,0,0,-1,82.805,79.567)" stroke-width=".3985" stroke-linecap="butt" stroke-miterlimit="10" stroke-linejoin="miter" fill="none" stroke="#ffffff" d="M35.15166 71.62045H185.24036V.89241"/>
<path transform="matrix(0,1,1,0,268.04536,78.67459)" stroke-width=".31879" stroke-linecap="round" stroke-linejoin="round" fill="none" stroke="#ffffff" d="M-1.19551 1.59401C-1.09587 .99626 0 .09961 .29886 0 0-.09961-1.09587-.99626-1.19551-1.59401"/>
</svg>
